<svg width="47" height="45" viewBox="0 0 47 45" fill="none" xmlns="http://www.w3.org/2000/svg">
<g clip-path="url(#clip0_88_562)">
<path d="M23.2729 44.9948C18.3553 44.9948 13.4378 45.0091 8.52156 44.9909C3.40445 44.9713 0.0208759 41.5916 0.0117452 36.4706C-0.00390741 27.1534 -0.00521179 17.8375 0.0117452 8.52025C0.0208759 3.40053 3.40445 0.0195658 8.52808 0.0117395C18.3618 -0.00391316 28.1969 -0.00391316 38.0307 0.0117395C43.1465 0.0195658 46.534 3.40706 46.5431 8.52677C46.56 17.844 46.56 27.1599 46.5431 36.4771C46.534 41.5929 43.1439 44.9713 38.0241 44.9909C33.1079 45.0091 28.1904 44.9948 23.2729 44.9948ZM24.2433 33.0688C22.4472 29.9996 20.7541 26.9799 18.9227 24.0477C18.2444 22.9611 18.2497 22.1667 18.9214 21.0841C20.608 18.3644 22.1524 15.5561 23.7998 12.7047C20.2115 12.2091 20.2128 12.209 18.7805 14.99C17.857 16.7835 16.9296 18.5745 15.8274 20.7071C14.6796 18.5249 13.7756 16.8214 12.8847 15.11C11.339 12.1386 11.0508 12.0056 7.54327 12.813C9.14766 15.6487 10.6686 18.4831 12.3421 21.225C13.0921 22.455 12.9956 23.3915 12.2495 24.5681C10.5003 27.3256 8.88548 30.1678 7.16891 33.0583C10.9138 33.6114 10.9073 33.6088 12.483 30.627C13.4247 28.8465 14.39 27.0804 15.5313 24.9607C16.7209 27.1221 17.6431 28.8126 18.5797 30.4965C20.3171 33.6218 20.3197 33.6205 24.2433 33.0688ZM35.4062 18.3384C34.4619 18.3384 33.8149 18.2953 33.1757 18.3449C29.333 18.6423 26.3369 21.7167 26.1021 25.579C25.8373 29.9161 27.876 33.0375 31.7892 33.4614C33.9597 33.6962 36.2358 33.0805 38.4442 32.7231C38.7898 32.667 39.2803 31.9444 39.279 31.5309C39.2646 25.6547 39.1746 19.7784 39.1068 13.9021C39.099 13.2186 39.1055 12.5338 39.1055 11.8373C37.7398 11.8373 36.6702 11.8373 35.4076 11.8373C35.4076 12.9682 35.4076 13.9895 35.4076 15.0096C35.4062 16.0322 35.4062 17.0548 35.4062 18.3384Z" fill="#F9AF20"/>
<path d="M35.4049 26.1869C35.4049 27.2199 35.3279 28.2608 35.4232 29.2861C35.581 30.9818 34.6549 31.2766 33.2853 31.0992C31.0548 30.8109 29.4021 28.6482 29.406 26.0329C29.4099 23.4437 31.0848 21.1858 33.2422 20.9002C34.5883 20.7215 35.5523 20.9941 35.4218 22.7002C35.3331 23.8546 35.4049 25.0233 35.4049 26.1869Z" fill="#F9AF20"/>
</g>
<defs>
<clipPath id="clip0_88_562">
<rect width="46.5561" height="45" fill="white"/>
</clipPath>
</defs>
</svg>
