<svg width="47" height="45" viewBox="0 0 47 45" fill="none" xmlns="http://www.w3.org/2000/svg">
<g clip-path="url(#clip0_88_570)">
<path d="M0 37.808C0 27.6023 0 17.3953 0 7.1896C0.0794033 6.85995 0.153994 6.5279 0.239413 6.19946C1.19706 2.48917 4.4153 0.00600911 8.30005 0.00360295C18.0534 -0.00241245 27.808 -6.28948e-06 37.5614 0.00360295C37.9656 0.00360295 38.371 0.0276645 38.7729 0.0673662C42.9259 0.476413 46.102 3.96414 46.1032 8.13642C46.1092 17.7105 46.1056 27.2846 46.1044 36.8575C46.1044 38.6898 45.5426 40.3417 44.4189 41.7818C42.7526 43.9184 40.5294 44.9783 37.8321 44.988C32.642 45.0096 27.4495 44.9952 22.257 44.9952C17.5902 44.9952 12.9235 45.0036 8.25674 44.9928C4.52719 44.9844 1.35948 42.6239 0.321222 39.1013C0.196102 38.6754 0.105871 38.2387 0 37.808ZM12.3484 11.5845C12.174 12.3737 12.0789 13.1063 11.8491 13.7933C11.0888 16.0635 10.2791 18.3169 9.4911 20.5775C8.26396 24.0965 7.03922 27.6143 5.81449 31.1345C5.63402 31.6542 5.66771 31.6987 6.2115 31.6999C7.23171 31.7011 8.25313 31.6819 9.27334 31.7096C9.68961 31.7204 9.88932 31.5796 10.0108 31.1778C10.4066 29.8749 10.8482 28.5864 11.2464 27.2846C11.3378 26.9839 11.4726 26.9033 11.7769 26.9057C13.8932 26.9201 16.0094 26.9201 18.1256 26.9057C18.4276 26.9033 18.5647 26.9815 18.6634 27.281C19.0965 28.6032 19.5717 29.9122 20.006 31.2344C20.1251 31.5965 20.3068 31.718 20.6846 31.7084C21.7192 31.6831 22.7551 31.6999 23.7909 31.6999C24.0544 31.6999 24.3191 31.6999 24.6631 31.6999C24.5777 31.404 24.5284 31.1898 24.4562 30.9841C22.2822 24.8809 20.1047 18.7777 17.9295 12.6756C17.5409 11.5845 17.5421 11.5832 16.3619 11.5832C15.012 11.5844 13.6634 11.5845 12.3484 11.5845ZM29.9278 25.1396C30.1359 25.1396 30.314 25.1396 30.4921 25.1396C33.2952 25.1323 36.0996 25.1239 38.9028 25.1203C39.2108 25.1203 39.4442 25.0565 39.4454 24.6872C39.4478 23.6706 39.5693 22.6371 39.4273 21.641C39.0989 19.3515 38.0005 17.5565 35.7411 16.6663C34.6631 16.2416 33.5322 16.1152 32.3845 16.1995C29.9062 16.3823 27.9704 17.4976 26.7613 19.6932C25.3248 22.3015 25.1925 25.0325 26.2668 27.7984C27.0248 29.7486 28.4504 31.0563 30.4487 31.6446C31.3559 31.9117 32.328 32.0248 33.2784 32.0693C34.8123 32.1427 36.333 31.9622 37.7767 31.3896C37.9439 31.3234 38.1761 31.1309 38.1809 30.9913C38.2146 29.9459 38.199 28.898 38.199 27.8116C38.0137 27.8742 37.8766 27.9283 37.7346 27.9668C36.1333 28.3915 34.5224 28.7259 32.8585 28.3446C31.0924 27.9403 30.0962 26.8708 29.9278 25.1396Z" fill="#F9AF20"/>
<path d="M14.9026 15.065C15.752 17.8152 16.5628 20.4391 17.3845 23.0967C15.7411 23.0967 14.1434 23.0967 12.4856 23.0967C13.2856 20.4403 14.0761 17.814 14.9026 15.065Z" fill="#F9AF20"/>
<path d="M29.9219 22.3135C30.1192 20.8277 30.8735 19.8869 32.0814 19.5777C33.7657 19.147 35.3911 20.2322 35.4945 21.8383C35.515 22.1487 35.4139 22.3087 35.1204 22.3099C33.3976 22.3159 31.676 22.3135 29.9219 22.3135Z" fill="#F9AF20"/>
</g>
<defs>
<clipPath id="clip0_88_570">
<rect width="46.108" height="45" fill="white"/>
</clipPath>
</defs>
</svg>
