<svg width="43" height="45" viewBox="0 0 43 45" fill="none" xmlns="http://www.w3.org/2000/svg">
<g clip-path="url(#clip0_88_558)">
<path d="M42.4844 7.31213C42.4102 7.90482 42.3379 8.48883 42.2642 9.07332C42.0324 10.9159 41.8002 12.7581 41.5684 14.6007C41.2894 16.8172 41.0104 19.0333 40.7319 21.2498C40.503 23.0746 40.2756 24.8994 40.0467 26.7242C39.7918 28.7537 39.5359 30.7833 39.2805 32.8134C39.1938 33.5039 39.1042 34.1939 39.0242 34.8849C39.0097 35.0106 38.9615 35.0819 38.8517 35.1427C32.9345 38.4106 27.0192 41.6814 21.1054 44.9552C20.9917 45.0183 20.9112 45.012 20.8009 44.9508C14.9801 41.7161 9.15735 38.4848 3.33317 35.2554C3.22861 35.1976 3.18235 35.1287 3.16886 35.0116C2.95443 33.1304 2.73711 31.2497 2.5198 29.3686C2.28899 27.3708 2.0577 25.373 1.82689 23.3753C1.62114 21.5943 1.41635 19.8129 1.2106 18.032C0.967743 15.9287 0.723924 13.8254 0.481069 11.7216C0.322538 10.3502 0.166899 8.97887 0.00306852 7.60848C-0.0128327 7.47597 0.0228246 7.42489 0.145698 7.38104C7.04105 4.92888 13.9345 2.4719 20.8298 0.020219C20.9098 -0.00821049 21.0168 -0.00531935 21.0982 0.0221464C28.1709 2.42805 35.2426 4.83781 42.3138 7.24757C42.3683 7.26588 42.4217 7.28852 42.4844 7.31213ZM34.6836 34.3808C30.1137 24.6551 25.5592 14.9626 20.9859 5.23004C16.6218 14.9375 12.2759 24.6054 7.92766 34.2777C8.17967 34.2777 8.40277 34.2801 8.62539 34.2772C9.59825 34.2647 10.5716 34.2507 11.5445 34.2368C11.8866 34.2319 12.2287 34.2233 12.5708 34.2228C12.7322 34.2223 12.8267 34.1741 12.8937 34.005C13.7027 31.9595 14.5243 29.9184 15.3357 27.8739C15.4008 27.71 15.473 27.645 15.6624 27.645C19.4146 27.6522 23.1668 27.6517 26.9195 27.6464C27.0857 27.6464 27.1662 27.6951 27.2322 27.8488C28.1328 29.9449 29.0416 32.0376 29.9417 34.1336C29.9986 34.2662 30.0679 34.3033 30.2043 34.3018C30.6524 34.2984 31.101 34.3057 31.5492 34.3143C32.5799 34.3351 33.6115 34.3582 34.6836 34.3808Z" fill="#F9AF20"/>
<path d="M25.4247 23.7545C22.6512 23.7545 19.9113 23.7545 17.1445 23.7545C18.4359 20.6865 19.7196 17.6364 21.0196 14.5486C22.4951 17.6311 23.9536 20.6798 25.4247 23.7545Z" fill="#F9AF20"/>
</g>
<defs>
<clipPath id="clip0_88_558">
<rect width="42.4842" height="45" fill="white"/>
</clipPath>
</defs>
</svg>
