<svg width="45" height="45" viewBox="0 0 45 45" fill="none" xmlns="http://www.w3.org/2000/svg">
<g clip-path="url(#clip0_88_552)">
<path d="M44.9977 6.9289C44.9977 17.3041 44.9977 27.6782 44.9977 38.0534C44.966 38.165 44.919 38.2742 44.9049 38.387C44.5385 41.3751 42.4336 43.8547 39.5417 44.6758C39.0543 44.8144 38.5492 44.8931 38.0523 44.9988C27.6771 44.9988 17.3031 44.9988 6.92786 44.9988C6.83154 44.9682 6.7364 44.9236 6.63774 44.9107C2.76274 44.3927 0.00948352 41.2953 0.00595973 37.4038C-0.00343705 27.4585 -0.00108785 17.5132 0.0118327 7.56671C0.0130073 6.95827 0.0870069 6.33456 0.230308 5.74373C1.05722 2.34915 4.01603 0.0246183 7.52103 0.00817389C10.656 -0.00709587 13.791 0.0046501 16.9249 0.0046501C23.7363 0.0046501 30.5478 -4.82893e-05 37.3593 0.00699929C40.9489 0.0105231 43.93 2.3374 44.7652 5.77427C44.858 6.15484 44.9202 6.54363 44.9977 6.9289ZM12.2053 36.026C12.3369 36.0366 12.4226 36.0507 12.5084 36.0507C16.7134 36.0495 20.9185 36.0648 25.1235 36.0342C26.5624 36.0237 27.9766 35.77 29.331 35.2508C31.1304 34.5601 32.6069 33.4971 33.3962 31.6659C34.0434 30.1636 34.1139 28.5908 33.8308 27.011C33.3892 24.5549 32.0807 22.8012 29.6082 22.0577C29.4519 22.0107 29.2969 21.9626 29.1007 21.9027C29.1877 21.8439 29.2194 21.8146 29.257 21.797C31.8047 20.573 32.9464 18.5292 32.7866 15.7325C32.6551 13.4068 31.6144 11.6649 29.4754 10.6395C28.0166 9.94057 26.4602 9.73267 24.864 9.73149C20.8057 9.72914 16.7463 9.73032 12.6881 9.73149C12.533 9.73149 12.3768 9.74676 12.203 9.75616C12.2053 18.5281 12.2053 27.2553 12.2053 36.026Z" fill="#F9AF20"/>
<path d="M16.8826 32.2133C16.8826 29.4894 16.8826 26.816 16.8826 24.1156C17.0541 24.1074 17.1962 24.0945 17.3395 24.0945C19.8872 24.0933 22.4361 24.0628 24.9826 24.1133C25.7273 24.1286 26.5107 24.2636 27.1991 24.5385C28.9151 25.2245 29.4872 26.8513 29.2922 28.6296C29.0408 30.9283 27.5761 32.2098 25.2563 32.2286C22.5911 32.2497 19.9259 32.2368 17.2608 32.2368C17.1469 32.2368 17.0329 32.2227 16.8826 32.2133Z" fill="#F9AF20"/>
<path d="M16.885 20.7093C16.885 18.3084 16.885 15.9475 16.885 13.5631C17.0448 13.5548 17.174 13.5431 17.302 13.5431C19.6888 13.5419 22.0744 13.5337 24.4612 13.5501C24.9099 13.5537 25.3656 13.623 25.8061 13.7158C27.1334 13.9953 27.9121 14.8281 28.0707 16.1683C28.1424 16.7721 28.1565 17.4087 28.0472 18.0019C27.763 19.5429 26.505 20.6482 24.85 20.6917C22.2165 20.7586 19.5807 20.7093 16.885 20.7093Z" fill="#F9AF20"/>
</g>
<defs>
<clipPath id="clip0_88_552">
<rect width="44.9977" height="45" fill="white"/>
</clipPath>
</defs>
</svg>
