<svg width="40" height="45" viewBox="0 0 40 45" fill="none" xmlns="http://www.w3.org/2000/svg">
<g clip-path="url(#clip0_88_541)">
<path d="M19.7936 45C19.6774 45 19.56 45 19.4437 45C19.3659 44.9659 19.2902 44.9229 19.2101 44.8998C14.3642 43.5363 9.52279 42.154 4.66487 40.8302C3.86308 40.6121 3.48686 40.3522 3.44628 39.4237C3.35085 37.232 3.08981 35.0491 2.89676 32.8617C2.73882 31.0687 2.58197 29.2746 2.42293 27.4815C2.23098 25.3096 2.03793 23.1366 1.84599 20.9647C1.68804 19.1716 1.53339 17.3775 1.37434 15.5845C1.1824 13.4125 0.988255 11.2395 0.795211 9.06762C0.602167 6.89571 0.408025 4.7238 0.216078 2.55079C0.141493 1.70933 0.0734885 0.867884 0 0C12.912 0 25.7867 0 38.6946 0C38.9856 0 39.2261 0.245373 39.2001 0.535268C39.0366 2.35804 38.8688 4.17972 38.7076 6.00139C38.5189 8.14467 38.3379 10.289 38.1482 12.4323C37.9584 14.5756 37.7588 16.7178 37.5701 18.8611C37.3815 21.0043 37.2038 23.1487 37.014 25.292C36.7947 27.7701 36.5643 30.2482 36.345 32.7263C36.1278 35.19 35.9161 37.6549 35.711 40.1198C35.6869 40.4106 35.5728 40.5361 35.2832 40.6165C31.3149 41.7168 27.3509 42.8303 23.388 43.9482C22.1869 44.2885 20.9914 44.6487 19.7936 45ZM8.78022 25.6114C8.77145 25.7237 8.75939 25.781 8.76487 25.8361C8.99192 28.3285 9.21567 30.822 9.45917 33.3133C9.47124 33.4356 9.63137 33.6107 9.75532 33.6459C12.9636 34.549 16.1751 35.439 19.3878 36.3245C19.5205 36.3608 19.6785 36.3707 19.809 36.3344C23.0359 35.4467 26.2617 34.5546 29.4842 33.647C29.6082 33.6118 29.7683 33.4389 29.7815 33.3155C29.9142 32.0787 30.0228 30.8385 30.1336 29.5995C30.3222 27.4848 30.5065 25.3702 30.694 23.2566C30.886 21.099 31.0801 18.9415 31.2732 16.7828C31.4366 14.96 31.6022 13.1383 31.7635 11.3155C31.8523 10.3144 31.9335 9.31213 32.0201 8.28785C23.7313 8.28785 15.4951 8.28785 7.21393 8.28785C7.32033 9.84519 7.42453 11.3706 7.52982 12.9279C13.9464 12.9279 20.3146 12.9279 26.7015 12.9279C26.5864 14.4379 26.469 15.9116 26.3648 17.3863C26.3242 17.9645 26.3374 17.9678 25.7484 17.9744C20.013 18.0405 14.2787 18.1055 8.54331 18.1705C8.38756 18.1727 8.23071 18.1705 8.0234 18.1705C8.19012 19.7631 8.35026 21.2984 8.51479 22.8712C14.3335 22.8712 20.1139 22.8712 25.903 22.8712C25.6672 25.0673 25.4303 27.2194 25.212 29.3737C25.1802 29.6832 25.0299 29.7856 24.7623 29.8561C23.1587 30.2801 21.5595 30.7251 19.9538 31.1414C19.7278 31.1998 19.4602 31.1921 19.2342 31.1326C17.6712 30.724 16.1181 30.279 14.5529 29.8825C14.169 29.7856 14.0473 29.6072 14.0231 29.2349C13.9507 28.1401 13.8411 27.0465 13.7555 25.9528C13.738 25.7259 13.6743 25.607 13.4188 25.6081C11.8865 25.6158 10.3553 25.6114 8.78022 25.6114Z" fill="#F9AF20"/>
</g>
<defs>
<clipPath id="clip0_88_541">
<rect width="39.2308" height="45" fill="white"/>
</clipPath>
</defs>
</svg>
