<svg width="31" height="45" viewBox="0 0 31 45" fill="none" xmlns="http://www.w3.org/2000/svg">
<g clip-path="url(#clip0_88_566)">
<path d="M22.9695 15.0145C26.2762 15.2774 28.8023 17.2495 29.7812 20.3319C31.1253 24.5659 28.2212 29.2589 23.8651 29.8904C19.6616 30.4997 16.0826 27.9912 15.2246 23.8382C15.2164 23.7994 15.1929 23.7654 15.1213 23.6034C15.1213 23.9016 15.1213 24.0706 15.1213 24.2396C15.1224 28.6157 15.1342 32.9905 15.1224 37.3666C15.1166 39.5792 14.3313 41.4797 12.7032 43.001C11.5951 44.0375 10.2804 44.669 8.78258 44.9131C8.69924 44.9272 8.60299 44.9049 8.55134 45.0012C7.87756 45.0012 7.20378 45.0012 6.53 45.0012C6.08629 44.7758 5.58154 44.757 5.12023 44.5798C2.34999 43.5081 0.64441 41.5302 0.206571 38.5897C-0.410864 34.4555 2.38168 30.7227 6.48187 30.0794C6.63917 30.0548 6.80116 30.0524 6.96667 30.0184C5.63319 29.8364 4.40067 29.4045 3.29023 28.6321C-1.12925 25.5578 -0.876876 18.8153 3.75976 16.0745C4.66713 15.538 5.64728 15.2305 6.67321 15.0427C6.74481 15.052 6.81641 15.0708 6.88919 15.0708C9.63244 15.0697 12.3757 15.0673 15.1189 15.065C15.1201 16.0885 15.1213 17.1109 15.1213 18.1345C15.1213 19.1534 15.1213 20.1711 15.1213 21.19C15.234 21.0691 15.2703 20.9458 15.302 20.8226C16.0228 18.0171 17.7765 16.1871 20.5268 15.3079C20.8707 15.1976 21.2287 15.1295 21.5797 15.0415C22.0434 15.0309 22.507 15.0227 22.9695 15.0145Z" fill="#F8CA1C"/>
<path d="M22.9695 15.0145C22.5059 15.0227 22.0434 15.0309 21.5797 15.0391C19.4668 15.0344 17.3551 15.0297 15.2422 15.0262C15.2011 15.0262 15.16 15.0509 15.119 15.0638C12.3757 15.0661 9.63248 15.0685 6.88923 15.0696C6.81763 15.0696 6.74603 15.052 6.67325 15.0415C6.2448 14.9323 5.81283 14.8349 5.3879 14.7116C1.92041 13.6998 -0.240618 10.5011 0.0211465 6.77183C0.255913 3.42289 3.03907 0.54231 6.48309 0.069256C6.86341 0.0164336 7.24021 0 7.62053 0C12.5541 0.00352149 17.4889 0.00352149 22.4225 0.014086C26.8596 0.0234766 30.2309 3.60366 29.982 8.02901C29.7801 11.6174 26.8033 14.6717 23.2243 14.9628C23.1386 14.971 23.0552 14.9969 22.9695 15.0145Z" fill="#F9AF20"/>
</g>
<defs>
<clipPath id="clip0_88_566">
<rect width="30.1123" height="45" fill="white"/>
</clipPath>
</defs>
</svg>
