<svg width="40" height="45" viewBox="0 0 40 45" fill="none" xmlns="http://www.w3.org/2000/svg">
<g clip-path="url(#clip0_88_533)">
<path d="M20.0307 45C19.9126 45 19.7933 45 19.6752 45C19.6529 44.9818 19.6319 44.9558 19.6056 44.9467C16.9724 44.1246 14.3365 43.3064 11.7033 42.4843C9.196 41.7012 6.69266 40.9038 4.18144 40.1336C3.41127 39.8972 2.97306 39.4375 2.92845 38.631C2.91139 38.3245 2.89302 38.0167 2.8681 37.7102C2.67129 35.2283 2.47318 32.7477 2.27637 30.2658C2.1163 28.2372 1.95886 26.2072 1.79879 24.1786C1.60592 21.7409 1.4065 19.3031 1.21494 16.8654C1.0247 14.442 0.842325 12.0172 0.650769 9.59377C0.436909 6.89369 0.212552 4.19362 0.00393945 1.49354C-0.0564138 0.697412 0.506446 0.0766146 1.31203 0.00778142C1.45898 -0.00520596 1.60724 0.00128773 1.7555 0.00128773C13.8196 0.00128773 25.885 0.00128773 37.9491 0.00128773C38.0973 0.00128773 38.2456 -0.00390723 38.3926 0.00778142C39.1994 0.0766146 39.7544 0.696113 39.7006 1.49224C39.6259 2.60266 39.534 3.71178 39.4448 4.82091C39.2191 7.63787 38.9869 10.4548 38.7652 13.2718C38.5434 16.0745 38.3348 18.8785 38.1131 21.6811C37.89 24.4981 37.6552 27.3151 37.4335 30.132C37.2117 32.9347 36.9913 35.7374 36.7893 38.5414C36.7276 39.3985 36.3104 39.892 35.4799 40.1466C32.4609 41.0713 29.4498 42.0246 26.4374 42.9714C24.3014 43.6454 22.1667 44.3246 20.0307 45ZM8.54393 25.5851C8.54393 25.7059 8.53868 25.7787 8.54524 25.8501C8.73155 28.3034 8.91261 30.7554 9.11991 33.2061C9.13171 33.3464 9.33639 33.5412 9.49121 33.5906C12.8513 34.6607 16.2167 35.7153 19.5833 36.7634C19.7395 36.8127 19.9376 36.8205 20.0924 36.7725C23.4879 35.7166 26.8808 34.6542 30.2698 33.575C30.4076 33.5308 30.5768 33.3321 30.5899 33.1932C30.7605 31.2528 30.9035 29.3112 31.057 27.3696C31.2223 25.2683 31.3929 23.1669 31.5582 21.0642C31.6277 20.1785 31.692 19.2915 31.7616 18.3577C25.6711 18.3577 19.624 18.3577 13.5309 18.3577C13.3368 16.5927 13.1465 14.868 12.9497 13.0952C13.1531 13.0952 13.3276 13.0952 13.5021 13.0952C16.9212 13.0952 20.3404 13.0952 23.7595 13.0952C26.4242 13.0952 29.0877 13.0887 31.7524 13.1017C32.0974 13.103 32.2142 13.0082 32.2234 12.6614C32.2378 12.077 32.3139 11.4938 32.3585 10.9107C32.4268 10.025 32.4911 9.13791 32.5593 8.2262C24.0718 8.2262 15.6289 8.2262 7.17286 8.2262C7.16498 8.3288 7.15055 8.40153 7.1558 8.47166C7.33686 10.7782 7.51661 13.0848 7.7016 15.39C7.89578 17.8278 8.09784 20.2642 8.28808 22.7019C8.33531 23.2994 8.32088 23.3007 8.94541 23.3007C14.5255 23.3007 20.1055 23.3007 25.6856 23.3007C25.8588 23.3007 26.0319 23.3007 26.2104 23.3007C26.2222 23.4085 26.2379 23.4656 26.234 23.5214C26.0949 25.4046 25.9585 27.2891 25.801 29.171C25.7905 29.293 25.6252 29.4684 25.4993 29.5034C23.7503 29.9879 21.9961 30.4554 20.2407 30.9165C20.0924 30.9554 19.9166 30.9554 19.7696 30.9165C17.9984 30.4541 16.2298 29.9853 14.4664 29.4995C14.3483 29.4671 14.204 29.2788 14.1948 29.1528C14.162 28.7151 14.1817 28.2748 14.1817 27.8346C14.1817 27.0917 14.1817 26.3501 14.1817 25.5812C12.278 25.5851 10.4359 25.5851 8.54393 25.5851Z" fill="#F9AF20"/>
</g>
<defs>
<clipPath id="clip0_88_533">
<rect width="39.7059" height="45" fill="white"/>
</clipPath>
</defs>
</svg>
