<svg width="47" height="45" viewBox="0 0 47 45" fill="none" xmlns="http://www.w3.org/2000/svg">
<g clip-path="url(#clip0_88_575)">
<path d="M46.0397 6.7105C46.0397 17.3631 46.0397 28.0157 46.0397 38.6683C44.5379 42.4922 41.9698 44.9445 37.6513 44.959C27.8962 44.9904 18.1411 45.0446 8.38836 44.9373C3.30633 44.8818 0.0855852 41.3981 0.0819664 36.3378C0.0747288 27.3607 0.272557 18.3776 0.00476495 9.40893C-0.148432 4.27745 3.21707 -0.121829 9.4535 0.00241679C18.3666 0.180945 27.2858 0.0482552 36.2026 0.0482552C41.8721 0.0482552 44.1302 1.57781 46.0397 6.7105ZM18.9034 11.6598C16.8395 11.029 15.772 11.842 15.6356 13.9723C15.6139 14.3161 15.4161 14.649 15.2991 14.9867C13.5488 20.0543 11.7961 25.1206 10.0482 30.1882C9.88173 30.6695 9.44988 31.1858 9.96134 31.6562C10.6779 32.3173 13.6791 31.6176 14.0241 30.7479C14.503 29.544 14.3799 27.7829 15.4728 27.2328C16.5802 26.6755 18.1471 27.0278 19.5126 26.9855C19.7514 26.9783 19.9975 27.0229 20.2279 26.9783C21.9203 26.649 22.6381 27.4427 23.0964 29.0326C23.9167 31.883 24.018 31.7865 27.0011 31.8155C28.351 31.8287 28.4571 31.4258 28.0434 30.2847C26.0494 24.7986 24.0337 19.3173 22.2074 13.7744C21.6151 11.9831 20.8286 11.0965 18.9034 11.6598ZM30.4619 23.9433C30.4619 26.0905 30.5017 28.2389 30.4451 30.3848C30.4173 31.4355 30.7116 31.9614 31.8492 31.8191C32.3775 31.7527 32.9251 31.7696 33.4571 31.8167C34.3473 31.8951 34.7707 31.5911 34.7659 30.6321C34.7406 26.2775 34.7454 21.924 34.7635 17.5694C34.7671 16.7491 34.4909 16.3462 33.6163 16.4198C33.0241 16.4692 32.4161 16.4898 31.8299 16.4162C30.6694 16.2702 30.4185 16.8311 30.4463 17.8613C30.5005 19.8854 30.4619 21.9144 30.4619 23.9433ZM34.9517 12.5018C34.9891 11.0531 34.0771 10.0543 32.6972 10.035C31.3799 10.0169 30.2738 11.076 30.2436 12.3848C30.2122 13.7274 31.2279 14.8118 32.5609 14.8589C33.8962 14.9071 34.9155 13.9011 34.9517 12.5018Z" fill="#F9AF20"/>
<path d="M18.9034 11.6598C20.8286 11.0965 21.6151 11.9831 22.2062 13.7768C24.0325 19.3197 26.0482 24.801 28.0421 30.2871C28.4571 31.4282 28.3509 31.8311 26.9999 31.8179C24.018 31.7889 23.9167 31.8842 23.0952 29.035C22.6368 27.4451 21.9203 26.6514 20.2267 26.9807C19.9963 27.0253 19.7502 26.9807 19.5114 26.9879C18.1459 27.0314 16.5789 26.6779 15.4716 27.2352C14.3787 27.7853 14.5005 29.5464 14.0228 30.7503C13.6779 31.6188 10.6766 32.3197 9.96012 31.6586C9.44987 31.187 9.88171 30.6707 10.047 30.1906C11.7949 25.123 13.5464 20.0555 15.2979 14.9891C15.4149 14.6514 15.6127 14.3185 15.6344 13.9747C15.7707 11.842 16.8395 11.029 18.9034 11.6598ZM18.9553 15.8058C18.8274 15.7986 18.7008 15.7901 18.5729 15.7829C18.1592 17.1182 17.7345 18.4499 17.3316 19.7877C16.205 23.532 16.205 23.4982 20.1664 23.1785C21.0795 23.1049 21.1157 22.766 20.8986 22.0736C20.2424 19.9867 19.6019 17.8951 18.9553 15.8058Z" fill="#26282A"/>
<path d="M30.462 23.9433C30.462 21.9156 30.5006 19.8866 30.4451 17.8601C30.4174 16.8299 30.6695 16.269 31.8287 16.415C32.4161 16.4885 33.0229 16.4692 33.6152 16.4186C34.4885 16.345 34.7648 16.7479 34.7624 17.5682C34.7443 21.9228 34.7394 26.2762 34.7648 30.6309C34.7708 31.5911 34.3462 31.8939 33.456 31.8154C32.9228 31.7684 32.3763 31.7515 31.848 31.8179C30.7105 31.9602 30.4161 31.4343 30.4439 30.3836C30.5018 28.2388 30.462 26.0905 30.462 23.9433Z" fill="#26282A"/>
<path d="M34.9517 12.5018C34.9155 13.9011 33.8962 14.9071 32.5621 14.8589C31.2292 14.8118 30.2135 13.7274 30.2448 12.3848C30.275 11.076 31.3812 10.0169 32.6984 10.035C34.076 10.0543 34.9891 11.0531 34.9517 12.5018Z" fill="#26282A"/>
<path d="M18.9552 15.8058C19.6018 17.8951 20.2423 19.9867 20.8985 22.0736C21.1156 22.766 21.0807 23.1049 20.1663 23.1785C16.2049 23.4982 16.2037 23.5332 17.3316 19.7877C17.7345 18.4487 18.1579 17.117 18.5728 15.7829C18.6995 15.7901 18.8273 15.7985 18.9552 15.8058Z" fill="#F9AF20"/>
</g>
<defs>
<clipPath id="clip0_88_575">
<rect width="46.0398" height="45" fill="white"/>
</clipPath>
</defs>
</svg>
