<svg width="45" height="45" viewBox="0 0 45 45" fill="none" xmlns="http://www.w3.org/2000/svg">
<path d="M45 45C30.0023 45 15.0047 45 0 45C0 30.0059 0 15.0094 0 0C14.9953 0 29.9977 0 45 0C45 14.9953 45 29.9965 45 45ZM26.7938 37.0617C27.3188 38.1328 28.023 39.0176 28.9559 39.6984C31.4297 41.5031 34.1965 41.8207 37.0828 41.0836C40.377 40.2422 41.9801 37.6441 41.4457 34.2891C41.168 32.5488 40.2422 31.2328 38.7727 30.3727C37.3816 29.5594 35.877 28.9406 34.4391 28.2035C33.8602 27.907 33.2473 27.6047 32.7867 27.1629C31.773 26.1914 32.2922 24.4512 33.6621 24.1688C34.7672 23.9414 35.7551 24.1992 36.4723 25.1496C36.6469 25.3816 36.8063 25.6242 36.9984 25.8973C38.1094 25.1836 39.2051 24.4781 40.3078 23.7691C39.3516 22.0547 38.0227 20.9238 36.1441 20.5266C35.0062 20.2863 33.8578 20.25 32.7105 20.4973C30.4945 20.973 28.8598 22.1742 28.2773 24.4195C27.6738 26.748 28.1754 28.8527 30.0316 30.5121C30.9691 31.3512 32.0977 31.8715 33.2309 32.3848C34.2258 32.8348 35.2254 33.2824 36.1887 33.7969C36.9422 34.1988 37.3488 34.8797 37.2434 35.7562C37.132 36.6797 36.5039 37.1766 35.6637 37.4379C33.9598 37.9688 32.1059 37.4086 30.9633 36.0164C30.716 35.7152 30.4934 35.3918 30.2437 35.059C29.0859 35.7293 27.9551 36.3879 26.7938 37.0617ZM11.8734 37.5176C12.5109 38.8594 13.391 39.9094 14.6672 40.5691C16.7543 41.6473 18.9258 41.6988 21.1102 40.9172C22.6324 40.3723 23.6707 39.2836 24.1371 37.7391C24.3785 36.9398 24.5508 36.0855 24.5578 35.2535C24.5977 30.518 24.5777 25.7812 24.5766 21.0457C24.5766 20.9051 24.5602 20.7645 24.552 20.6238C23.1187 20.6238 21.7266 20.6238 20.2875 20.6238C20.2875 20.8758 20.2875 21.0938 20.2875 21.3105C20.2875 25.7109 20.2887 30.1102 20.2852 34.5105C20.2852 34.9195 20.2711 35.3297 20.2371 35.7363C20.148 36.8098 19.6102 37.3816 18.5637 37.5516C17.5301 37.7191 16.6922 37.3992 16.0758 36.5449C15.8156 36.184 15.5789 35.8078 15.3246 35.4281C14.1621 36.1313 13.0406 36.8109 11.8734 37.5176Z" fill="#F9AF20"/>
<path d="M26.7937 37.0617C27.9539 36.3867 29.0859 35.7293 30.2402 35.0578C30.4898 35.3906 30.7125 35.7129 30.9597 36.0152C32.1023 37.4062 33.9562 37.9664 35.6601 37.4367C36.5003 37.1754 37.1285 36.6773 37.2398 35.7551C37.3453 34.8785 36.9386 34.1977 36.1851 33.7957C35.2218 33.2812 34.2222 32.8348 33.2273 32.3836C32.0941 31.8703 30.9656 31.35 30.0281 30.5109C28.1718 28.8504 27.6703 26.7457 28.2738 24.4184C28.8562 22.1719 30.491 20.9719 32.707 20.4961C33.8554 20.2488 35.0039 20.2852 36.1406 20.5254C38.0191 20.9227 39.348 22.0547 40.3043 23.768C39.2027 24.477 38.1058 25.1824 36.9949 25.8961C36.8027 25.623 36.6433 25.3805 36.4687 25.1484C35.7515 24.1969 34.7636 23.9391 33.6585 24.1676C32.2886 24.45 31.7695 26.1914 32.7832 27.1617C33.2449 27.6035 33.8566 27.9059 34.4355 28.2023C35.8734 28.9395 37.3781 29.5582 38.7691 30.3715C40.2398 31.2316 41.1656 32.5477 41.4421 34.2879C41.9765 37.643 40.3734 40.241 37.0793 41.0824C34.1929 41.8195 31.4273 41.502 28.9523 39.6973C28.023 39.0187 27.3187 38.134 26.7937 37.0617Z" fill="black"/>
<path d="M11.8735 37.5176C13.0407 36.8109 14.1634 36.1313 15.3247 35.427C15.579 35.8066 15.8169 36.184 16.0759 36.5438C16.6911 37.3981 17.529 37.7168 18.5638 37.5504C19.6114 37.3816 20.1482 36.8098 20.2372 35.7352C20.2712 35.3273 20.2853 34.9184 20.2853 34.5094C20.2888 30.109 20.2876 25.7098 20.2876 21.3094C20.2876 21.0926 20.2876 20.8746 20.2876 20.6227C21.7267 20.6227 23.1177 20.6227 24.5521 20.6227C24.5603 20.7633 24.5767 20.9039 24.5767 21.0445C24.5778 25.7801 24.5978 30.5168 24.5579 35.2523C24.5509 36.0832 24.3786 36.9375 24.1372 37.7379C23.6708 39.2824 22.6325 40.3723 21.1103 40.916C18.9259 41.6977 16.7544 41.6461 14.6673 40.568C13.3899 39.9094 12.511 38.8594 11.8735 37.5176Z" fill="black"/>
</svg>
