<svg width="47" height="45" viewBox="0 0 47 45" fill="none" xmlns="http://www.w3.org/2000/svg">
<g clip-path="url(#clip0_88_582)">
<path d="M46.2104 6.25374C46.2104 17.085 46.2104 27.9162 46.2104 38.7487C45.9739 39.2144 45.7277 39.6753 45.5033 40.1459C44.1909 42.9102 42.0574 44.8387 38.9912 44.8787C28.4074 45.0158 17.8187 45.0643 7.23613 44.869C3.11467 44.7926 0.0460235 41.1587 0.0290428 37.0276C-0.010983 27.3413 -0.010983 17.655 0.0290428 7.96879C0.0472364 3.83642 3.11953 0.203769 7.23855 0.128569C17.8212 -0.0642827 28.4098 -0.0181923 38.9936 0.120079C42.0611 0.160105 44.1921 2.08984 45.5045 4.85405C45.7289 5.32587 45.9739 5.78677 46.2104 6.25374ZM14.4917 25.5511C16.3669 25.3497 17.9922 25.3036 19.5617 24.981C22.9396 24.2872 24.8427 21.8735 24.8718 18.4798C24.9009 15.1007 23.033 12.613 19.7096 11.8282C16.6992 11.1175 13.6645 11.4692 10.5886 11.7555C10.5886 18.475 10.5886 25.0453 10.5886 31.6665C11.9131 31.6665 13.1248 31.6665 14.4917 31.6665C14.4917 29.5549 14.4917 27.59 14.4917 25.5511ZM27.095 27.9259C27.095 28.5336 27.1545 29.3147 27.0805 30.0837C26.9859 31.0661 27.4759 31.5125 28.3358 31.7235C30.4038 32.2317 32.4767 32.4379 34.558 31.8145C36.5848 31.208 37.8535 29.8993 38.1555 27.7695C38.4042 26.0132 37.486 24.4922 35.566 23.4418C34.9365 23.0974 34.2657 22.8317 33.6144 22.5273C33.0176 22.2483 32.3712 22.0385 31.8436 21.6625C31.4967 21.4151 31.0285 20.7868 31.1291 20.5769C31.3269 20.1682 31.8557 19.7364 32.3008 19.6709C33.0516 19.5605 33.8521 19.6697 34.6138 19.7922C35.4762 19.9305 36.3204 20.1852 37.2737 20.4132C37.3283 19.8735 37.3962 19.4683 37.4047 19.0608C37.4557 16.7332 37.2701 16.5137 34.8916 16.3912C33.7551 16.3318 32.6028 16.299 31.4736 16.413C29.2819 16.6338 27.5353 18.2142 27.1617 20.1718C26.7918 22.1113 27.6129 23.762 29.6518 24.9179C30.6901 25.5074 31.8666 25.8591 32.883 26.4789C33.3536 26.7664 33.5926 27.4359 33.9358 27.932C33.4373 28.1843 32.9194 28.6804 32.4427 28.644C30.7374 28.5178 29.0454 28.2061 27.095 27.9259Z" fill="#F9AF20"/>
<path d="M14.6699 15.2571C16.915 15.2644 19.0449 14.738 20.3548 16.7975C21.0352 17.8685 21.0741 19.1506 20.2723 20.1973C18.8714 22.0276 16.8434 21.8772 14.6699 21.7401C14.6699 19.5811 14.6699 17.4755 14.6699 15.2571Z" fill="#F9AF20"/>
</g>
<defs>
<clipPath id="clip0_88_582">
<rect width="46.2105" height="45" fill="white"/>
</clipPath>
</defs>
</svg>
