<svg width="40" height="45" viewBox="0 0 40 45" fill="none" xmlns="http://www.w3.org/2000/svg">
<g clip-path="url(#clip0_88_547)">
<path d="M19.1478 45C18.4294 44.7751 17.6907 44.621 17.0159 44.2543C15.3006 43.3221 14.0969 41.8945 13.0634 40.2885C12.5791 39.5367 12.1728 38.7444 11.7908 37.9389C11.6895 37.7251 11.5962 37.6481 11.3358 37.6815C9.64783 37.8984 7.95474 37.9966 6.26672 37.6988C3.59892 37.2286 1.39619 36.0908 0.399184 33.3743C-0.185442 31.7826 -0.0820942 30.1624 0.424514 28.5595C1.0983 28.5838 1.77817 28.4957 2.44588 28.6477C2.4246 28.747 2.40738 28.8473 2.38002 28.9456C2.09227 29.9679 1.94941 31.0075 2.12976 32.0602C2.41853 33.7513 3.52901 34.7442 5.06201 35.3035C6.8321 35.9479 8.67007 35.9408 10.5162 35.7503C10.889 35.7118 10.813 35.498 10.733 35.2518C10.0349 33.0957 9.50902 30.9001 9.23342 28.6487C9.79778 28.6487 10.3632 28.6609 10.9275 28.6457C11.503 28.6294 12.0846 28.7287 12.652 28.5575C12.7027 28.5869 12.7554 28.6112 12.803 28.6446C14.9551 30.1898 17.2176 31.5506 19.6017 32.7087C19.7861 32.7988 19.9411 32.8829 20.167 32.7695C21.3241 32.1848 22.4711 31.5789 23.5917 30.9264C24.8795 30.1766 26.0883 29.3073 27.3193 28.4724C28.4319 28.4724 29.5444 28.4734 30.6569 28.4734C30.5839 29.0064 30.5242 29.5403 30.436 30.0702C30.1442 31.8251 29.6801 33.5385 29.1533 35.2356C29.0134 35.6845 29.0438 35.727 29.519 35.7625C29.7227 35.7777 29.9284 35.7828 30.132 35.801C31.7805 35.9499 33.4057 35.8476 34.961 35.2417C36.6906 34.5679 37.8092 33.2943 37.8072 31.198C37.8061 30.3225 37.6076 29.4907 37.4191 28.6517C38.0858 28.4552 38.7687 28.6122 39.4415 28.5616C40.1842 31.276 39.9967 33.7958 37.8102 35.8385C36.6166 36.953 35.1201 37.4454 33.5344 37.7069C31.9011 37.9764 30.2709 37.9014 28.6406 37.6967C28.3407 37.6592 28.1715 37.7271 28.0256 38.022C27.4582 39.174 26.8644 40.3118 26.0782 41.3382C25.0801 42.6392 23.9423 43.7689 22.4235 44.4599C21.8794 44.7072 21.2897 44.8014 20.7314 45.001C20.2025 45 19.6746 45 19.1478 45ZM11.5851 30.3235C11.5821 30.3134 11.581 30.3013 11.575 30.2921C11.5719 30.2871 11.5598 30.2881 11.5527 30.2871C11.5658 30.2972 11.578 30.3073 11.5912 30.3175C11.5881 30.3752 11.574 30.435 11.5841 30.4907C11.8587 32.0754 12.3045 33.6145 12.8243 35.1343C12.9003 35.3582 13.033 35.3106 13.2032 35.2721C14.2995 35.0228 15.3755 34.6996 16.4354 34.3288C16.7545 34.2173 17.1011 34.1444 17.3898 33.9296C17.2703 33.7472 17.0929 33.7016 16.944 33.6206C15.337 32.7502 13.7868 31.7897 12.2822 30.7531C12.0573 30.6002 11.8718 30.3783 11.5851 30.3235ZM19.8621 42.9817C20.9715 42.9685 21.8541 42.5652 22.6525 41.9644C24.1905 40.8063 25.1784 39.2216 26.0336 37.5377C26.1542 37.3006 26.0974 37.2165 25.8411 37.1516C23.923 36.6683 22.0547 36.0371 20.2441 35.2376C20.0424 35.1485 19.8641 35.1404 19.6584 35.2316C17.8366 36.0401 15.9521 36.6724 14.0209 37.1577C13.7412 37.2276 13.7422 37.338 13.8507 37.5549C14.5781 39.0017 15.4191 40.3716 16.6269 41.475C17.5651 42.3332 18.6239 42.9543 19.8621 42.9817ZM22.3242 33.9215C23.8177 34.4696 25.2169 34.9286 26.6537 35.2711C26.9242 35.3359 27.0042 35.2701 27.0883 35.0269C27.4896 33.8647 27.831 32.6854 28.0965 31.4857C28.1786 31.1149 28.3255 30.742 28.2606 30.2749C26.3345 31.582 24.4256 32.813 22.3242 33.9215Z" fill="#F9AF20"/>
<path d="M30.6559 28.4734C29.5433 28.4734 28.4308 28.4724 27.3183 28.4724C27.7317 28.1482 28.1421 27.8189 28.5615 27.5028C28.7125 27.3893 28.7986 27.2677 28.8108 27.0701C28.8584 26.3406 28.9547 25.6131 28.9759 24.8836C29.0448 22.5562 29.0276 20.2289 28.8098 17.9076C28.7925 17.7293 28.7196 17.6138 28.5838 17.5074C25.9636 15.4445 23.1479 13.6946 20.1518 12.2305C19.9634 12.1383 19.8084 12.1282 19.6229 12.2295C19.0636 12.5355 18.4952 12.8243 17.9339 13.1272C15.5984 14.3917 13.3866 15.8437 11.3014 17.4891C11.1717 17.5915 11.0714 17.6877 11.0542 17.8752C10.8991 19.5368 10.7948 21.2036 10.8201 22.8703C10.8414 24.2726 10.9062 25.6769 11.0511 27.0752C11.0714 27.2738 11.1524 27.3923 11.3014 27.5058C11.7553 27.8503 12.2001 28.2059 12.6479 28.5575C12.0805 28.7287 11.4979 28.6294 10.9234 28.6457C10.3591 28.6609 9.79371 28.6487 9.22935 28.6487C9.22428 28.4005 9.05406 28.2586 8.88486 28.1178C7.54842 26.9992 6.3123 25.7772 5.16432 24.4672C4.92318 24.1916 4.81172 24.1551 4.58172 24.4975C3.7063 25.8005 2.98388 27.1765 2.44181 28.6487C1.77309 28.4967 1.09423 28.5849 0.420441 28.5605C0.785199 27.0661 1.48331 25.7175 2.26652 24.4094C2.59683 23.8582 2.96564 23.3273 3.34053 22.8045C3.50467 22.5755 3.49961 22.4103 3.33547 22.1844C2.38709 20.8783 1.56234 19.4983 0.940221 18.0049C0.234009 16.3087 -0.191543 14.5599 0.111409 12.7149C0.510617 10.2811 1.98282 8.70555 4.22811 7.83317C6.03366 7.13203 7.92433 7.00841 9.84032 7.18066C10.3794 7.2293 10.9204 7.25868 11.4554 7.33163C11.7006 7.36507 11.7148 7.19687 11.7816 7.06414C12.2346 6.16137 12.6814 5.25656 13.2508 4.41863C14.0948 3.17542 15.0371 2.02947 16.3026 1.1814C18.8367 -0.515734 21.697 -0.376923 24.0699 1.54312C25.4732 2.67894 26.4865 4.11771 27.368 5.66489C27.5422 5.96987 27.6902 6.28903 27.8513 6.6011C28.2566 7.39141 28.2535 7.35696 29.1624 7.25564C31.6954 6.97295 34.2163 6.98815 36.5153 8.25974C38.4607 9.33577 39.6471 10.9833 39.8214 13.2823C39.9734 15.2813 39.3584 17.0889 38.5336 18.8519C37.9865 20.0222 37.2945 21.1083 36.5325 22.1489C36.3441 22.4063 36.3471 22.5886 36.5335 22.845C37.7717 24.5462 38.795 26.3619 39.4019 28.3913C39.4182 28.4461 39.4263 28.5048 39.4374 28.5605C38.7636 28.6112 38.0817 28.4542 37.415 28.6507C36.8618 27.2018 36.1607 25.833 35.3025 24.5381C35.0492 24.1561 34.9205 24.2128 34.6712 24.5097C33.8617 25.4723 32.9447 26.3325 32.0419 27.2059C31.5941 27.6436 31.0662 27.9942 30.6559 28.4734ZM4.8715 20.855C4.98802 20.7203 5.08225 20.6098 5.17749 20.5014C6.34269 19.1822 7.59604 17.9522 8.94362 16.8194C9.10574 16.6826 9.20807 16.5367 9.23036 16.3067C9.27697 15.8427 9.36512 15.3816 9.44415 14.9216C9.75217 13.1343 10.1949 11.3804 10.7583 9.65798C10.8586 9.35097 10.7846 9.24965 10.4574 9.22128C9.61032 9.14732 8.76124 9.09767 7.91419 9.14732C6.62538 9.22331 5.36393 9.43203 4.20785 10.0643C2.88357 10.7887 2.1804 11.9063 2.09022 13.4038C1.99802 14.9389 2.36683 16.3726 3.03454 17.7516C3.55432 18.8215 4.15111 19.8378 4.8715 20.855ZM35.0228 20.8216C36.0462 19.3788 36.9034 17.8701 37.4252 16.1942C37.7899 15.023 37.9672 13.8172 37.6602 12.6064C37.1992 10.7887 35.8111 9.96093 34.1494 9.49485C32.6266 9.06828 31.0662 9.07639 29.5028 9.22837C28.9911 9.27802 28.9557 9.30436 29.131 9.80996C29.7713 11.6479 30.1898 13.5386 30.512 15.4556C30.6022 15.9916 30.5383 16.5732 31.0905 16.9896C32.1909 17.8194 33.1261 18.8367 34.0826 19.8256C34.3936 20.1478 34.656 20.5186 35.0228 20.8216ZM19.9978 2.00819C18.9127 2.02845 18.015 2.42462 17.2044 3.04066C15.6835 4.19572 14.7007 5.76317 13.8527 7.43397C13.724 7.68727 13.7726 7.78049 14.0533 7.84837C15.87 8.29216 17.6269 8.91326 19.3413 9.65595C19.6503 9.78969 19.9451 9.89811 20.2967 9.73802C22.081 8.92542 23.9413 8.32762 25.838 7.84026C26.0873 7.77643 26.1562 7.70145 26.0315 7.45626C25.3182 6.05295 24.5137 4.71449 23.3587 3.62326C22.3991 2.71643 21.318 2.05682 19.9978 2.00819ZM22.3688 11.0582C24.4023 12.2447 26.4216 13.3299 28.3234 14.7859C28.0306 13.033 27.5929 11.4382 27.0356 9.87379C26.9556 9.64784 26.8147 9.66811 26.6222 9.71472C25.1966 10.0592 23.7913 10.4696 22.3688 11.0582ZM17.3797 11.0866C16.0078 10.5121 14.6399 10.0795 13.2427 9.72991C12.9215 9.64987 12.8384 9.74106 12.7523 9.99943C12.3744 11.1363 12.0562 12.2903 11.7898 13.4565C11.7016 13.8436 11.5597 14.2326 11.6104 14.7291C13.498 13.3907 15.3776 12.1505 17.3797 11.0866ZM8.88992 19.5834C7.90913 20.4731 7.08336 21.3981 6.26164 22.3283C6.12587 22.4812 6.17653 22.5704 6.28899 22.694C6.69124 23.1378 7.07424 23.5998 7.4856 24.0345C7.9223 24.4955 8.38331 24.9332 8.89195 25.4388C8.82204 23.4438 8.82508 21.5511 8.88992 19.5834ZM30.9801 25.3659C32.0217 24.5107 32.817 23.539 33.655 22.6089C33.7948 22.4539 33.6418 22.3738 33.5628 22.2837C33.1676 21.8328 32.7826 21.3718 32.3672 20.9401C31.9497 20.5075 31.5434 20.0576 30.9983 19.6706C31.0348 21.5876 31.0622 23.4286 30.9801 25.3659Z" fill="#F9AF20"/>
<path d="M23.9119 22.4863C23.9585 24.532 22.1235 26.5108 19.9583 26.4824C17.7383 26.452 15.9307 24.7012 15.9358 22.4954C15.9399 20.3221 17.7505 18.5115 19.9319 18.4973C22.1114 18.4831 23.9058 20.2815 23.9119 22.4863ZM17.9845 22.4924C18.0139 23.7822 18.7657 24.4651 19.8833 24.4975C20.9269 24.5279 21.9097 23.6576 21.8945 22.5035C21.8804 21.39 21.0718 20.5531 19.9654 20.543C18.8296 20.5318 17.9866 21.3626 17.9845 22.4924Z" fill="#F9AF20"/>
</g>
<defs>
<clipPath id="clip0_88_547">
<rect width="39.8478" height="45" fill="white"/>
</clipPath>
</defs>
</svg>
