<svg width="55" height="45" viewBox="0 0 55 45" fill="none" xmlns="http://www.w3.org/2000/svg">
<g clip-path="url(#clip0_88_544)">
<path d="M54.643 26.1596C54.5586 26.8375 54.5628 27.5293 54.3281 28.1834C52.2448 27.7697 50.1741 27.7837 48.1161 28.3539C47.6437 28.4853 47.3584 28.6558 47.4849 29.2386C48.0992 32.0758 47.3485 33.651 44.762 35.0542C44.0858 35.4218 43.3731 35.6957 42.6266 35.8802C41.4908 36.1612 40.7092 35.5392 40.7204 34.3666C40.7359 32.6698 41.651 31.3854 42.6857 30.1653C43.0455 29.7404 43.4701 29.3686 43.8735 28.9815C44.0858 28.7788 44.1814 28.5691 44.0282 28.2896C43.3168 26.9926 42.905 25.5908 42.6126 24.1456C42.337 24.1596 42.3005 24.3748 42.2232 24.523C41.3404 26.2043 40.3957 27.8508 39.3077 29.4105C39.0153 29.8298 39.0139 30.1974 39.191 30.6572C39.8306 32.3246 39.9585 34.013 38.7299 35.4539C37.147 37.3114 35.0215 38.02 32.6079 37.8118C31.8178 37.7433 31.5311 36.8949 32.0315 36.1737C32.4982 35.5029 33.0296 34.8753 33.5441 34.2366C34.3271 33.2652 35.1199 32.3009 35.91 31.3337C36.125 31.0695 36.2291 30.797 36.0477 30.4644C35.2605 29.0192 34.739 27.479 34.4086 25.7138C33.918 26.8431 33.478 27.8396 33.0521 28.8403C31.8867 31.5839 30.4739 34.2031 29.0077 36.7943C28.6282 37.4652 28.1615 38.0703 27.4755 38.4631C26.58 38.976 25.8012 38.7244 25.3444 37.7978C25.1335 37.3701 25.0632 36.9145 25.0323 36.4505C25.0098 36.1164 25.0112 35.781 25.007 35.447C25.0028 35.1325 25.0056 34.818 24.9325 34.463C24.8186 34.702 24.7033 34.9396 24.5937 35.18C24.075 36.3121 23.6012 37.468 22.8899 38.5022C21.8932 39.9488 20.0826 39.9362 19.1464 38.4561C17.8334 36.382 17.5959 34.1164 18.0218 31.7516C18.1596 30.9885 18.3465 30.2337 18.5405 29.342C17.8559 29.7362 17.2571 30.0786 16.661 30.4266C16.2267 30.6796 15.6714 30.8487 15.3987 31.2205C15.0796 31.6551 15.6067 32.129 15.7122 32.6014C16.8747 37.7936 14.2122 42.6574 9.57888 44.4562C8.84227 44.7413 8.07051 44.8699 7.29735 44.9985C7.09492 45.0082 6.95575 44.9034 6.81096 44.7734C5.11844 43.2528 3.62554 41.5575 2.33506 39.6874C2.25071 39.5658 2.14528 39.4554 2.15231 39.2933C2.91844 36.7817 4.86119 35.2639 6.87422 33.8215C8.25607 32.832 9.74617 32.0129 11.2616 31.24C11.8548 30.9382 11.866 30.8501 11.3347 30.4685C9.607 29.2288 7.85684 28.0199 6.14183 26.762C4.27077 25.3895 2.5164 23.8856 1.23717 21.9178C0.715636 21.1169 0.343113 20.2476 0.116788 19.3181C-0.169985 18.1427 0.116788 17.0358 0.518832 15.9414C1.21749 14.0406 2.36599 12.425 3.73518 10.9532C7.48853 6.92242 12.1809 4.3242 17.2121 2.2473C19.6539 1.2396 22.1674 0.472291 24.8003 0.169002C28.1587 -0.218145 31.4523 -0.0168848 34.5225 1.55826C36.3767 2.51006 37.6615 3.96361 38.0228 6.06427C38.3616 8.03076 38.0045 9.92037 37.1034 11.687C34.94 15.933 31.4369 18.548 26.8893 19.8576C24.9058 20.4293 22.8787 20.7591 20.8122 20.7312C18.8835 20.706 17.0069 20.4251 15.438 19.1574C14.7928 18.6361 14.2221 18.0547 14.0084 17.2147C13.9578 17.0134 13.8777 16.7982 14.1124 16.6682C14.3373 16.5438 14.5018 16.6906 14.648 16.8457C15.8021 18.0812 17.2936 18.5956 18.9215 18.6417C23.5267 18.7703 27.5697 17.2412 31.1079 14.3509C32.5755 13.1517 33.7128 11.68 34.4142 9.91758C34.954 8.56186 35.1087 7.1712 34.3116 5.84204C33.7479 4.90283 32.7765 4.50869 31.7995 4.17885C30.0283 3.58205 28.1938 3.58485 26.3621 3.75117C21.2803 4.21379 16.8185 6.33681 12.5436 8.93224C10.7372 10.0294 9.02783 11.2621 7.54195 12.7758C6.48905 13.8492 5.60905 15.0441 5.05659 16.453C4.13442 18.8066 4.54349 20.9352 6.18259 22.8402C7.41965 24.277 8.93224 25.4063 10.4223 26.5607C11.5568 27.4412 12.7207 28.2882 13.7146 29.3337C13.9817 29.6146 14.2305 29.6244 14.5566 29.4455C16.2731 28.5007 17.9979 27.5698 19.7185 26.6334C19.9856 26.4881 20.1923 26.2812 20.3849 26.0464C21.3408 24.8808 22.4555 23.908 23.8261 23.2441C24.3533 22.9884 24.9015 22.7899 25.4891 22.8095C26.5856 22.8458 27.2787 23.5376 27.3743 24.7047C27.422 25.2945 27.3827 25.8899 27.3827 26.4797C27.5907 26.5523 27.7144 26.3958 27.8705 26.3609C28.8404 26.1456 29.4983 26.7941 29.2565 27.7376C28.8784 29.2121 28.4876 30.6824 28.1207 32.1597C27.9197 32.9689 27.7018 33.7796 27.7355 34.6265C27.7412 34.7663 27.6681 34.9648 27.848 35.0207C28.0771 35.092 28.1024 34.8544 28.1741 34.7202C29.4576 32.3037 30.5414 29.7935 31.6534 27.2973C32.2424 25.9723 32.8243 24.6446 33.4077 23.3182C33.6551 22.7535 33.807 22.1595 33.9461 21.5628C34.0502 21.1141 34.3271 20.8709 34.7727 20.7605C35.5121 20.5774 36.2614 20.6082 37.0036 20.6585C37.7079 20.7074 37.9258 21.0624 37.6728 21.7179C37.0093 23.4384 36.8068 25.1673 37.4703 26.9353C37.6137 27.3155 37.722 27.8941 38.0509 27.943C38.3897 27.9933 38.5162 27.4021 38.7046 27.0751C39.7139 25.3182 40.7837 23.5893 41.5147 21.6913C41.748 21.0862 41.9139 20.4544 42.0826 19.8283C42.2386 19.2469 42.6098 18.9464 43.1945 18.896C43.844 18.8387 44.4907 18.7479 45.1485 18.8527C45.8444 18.9645 46.0609 19.2455 45.8458 19.9233C45.6448 20.5606 45.4198 21.1868 45.3144 21.8521C45.0417 23.5698 45.4944 25.124 46.3322 26.6027C46.5712 27.0248 46.8846 27.0038 47.2811 26.8542C49.0256 26.1945 50.8179 25.7976 52.7002 25.8941C53.3595 25.9248 53.9977 26.0632 54.643 26.1596ZM13.3997 34.6797C13.4053 34.0871 13.3364 33.5168 13.2423 32.948C13.1804 32.5748 13.023 32.5203 12.7123 32.7188C12.1781 33.0598 11.6186 33.3645 11.0943 33.7209C9.55358 34.7705 7.96368 35.7712 6.79128 37.2597C6.02937 38.2269 5.48675 39.2989 5.50502 40.5707C5.51767 41.4387 5.98157 41.9502 6.75895 41.9879C7.3817 42.0187 7.99882 41.9628 8.56815 41.7028C11.5975 40.3219 13.224 37.9879 13.3997 34.6797ZM20.673 33.7418C20.7321 34.2701 20.6984 35.0039 21.0231 35.6776C21.2536 36.1556 21.5165 36.1877 21.8637 35.781C22.1561 35.4386 22.3529 35.0361 22.5427 34.6321C23.2863 33.0514 23.8894 31.4134 24.4868 29.7753C24.9184 28.5901 25.3373 27.3993 25.5566 26.1526C25.6016 25.8969 25.6691 25.6173 25.4259 25.4272C25.2094 25.2581 24.9662 25.3602 24.7343 25.4412C24.172 25.6369 23.7081 25.9737 23.3426 26.4335C21.6838 28.5202 20.7504 30.8795 20.673 33.7418ZM45.0108 31.057C45.0066 31.0025 45.0108 30.7956 44.9728 30.5971C44.918 30.3008 44.7844 30.2156 44.53 30.4588C43.5235 31.4231 42.8853 32.5972 42.5029 33.9221C42.4636 34.0591 42.4692 34.1807 42.569 34.2827C42.6871 34.4057 42.8066 34.3205 42.9275 34.2729C44.2236 33.7712 45.008 32.6167 45.0108 31.057ZM36.8771 32.8515C35.9971 33.8732 35.2183 34.7649 34.4578 35.672C34.2849 35.8788 33.8337 36.0885 34.0305 36.3233C34.2174 36.5441 34.559 36.1793 34.7868 36.027C35.8776 35.2974 36.7548 34.4071 36.8771 32.8515Z" fill="#F9AF20"/>
</g>
<defs>
<clipPath id="clip0_88_544">
<rect width="54.6429" height="45" fill="white"/>
</clipPath>
</defs>
</svg>
