<svg id="Layer_1" data-name="Layer 1" xmlns="http://www.w3.org/2000/svg" viewBox="0 0 600 91.67"><defs><style>.cls-1{fill:#fff;}.cls-2{fill:#f8af1e;}</style></defs><title>logo</title><path class="cls-1" d="M394.21,296.48h.34v-.29a29.55,29.55,0,0,0-.34-4.23,27.28,27.28,0,0,0-1.86-6.66,28.15,28.15,0,0,0-14.18-14.73c-.35-.16-.68-.34-1-.49a27.59,27.59,0,0,0-3-1.06,28.47,28.47,0,0,0-8-1.14,26.79,26.79,0,0,0-10.24,2,28.16,28.16,0,0,0-8.66,5.53,28.18,28.18,0,0,0-8.69-5.53,27.1,27.1,0,0,0-10.28-2,27.41,27.41,0,0,0-11,2.2,28.55,28.55,0,0,0-9,6.11,28.33,28.33,0,0,0-8.25,20v53.32a8.72,8.72,0,0,0,2.75,6.6,9.55,9.55,0,0,0,10.27,2,9.9,9.9,0,0,0,3.06-2,8.72,8.72,0,0,0,2.75-6.6V296.88a9.09,9.09,0,0,1,.75-3.61,9.68,9.68,0,0,1,2.07-3.06,9.15,9.15,0,0,1,6.73-2.75,9.7,9.7,0,0,1,3.74.72,9.25,9.25,0,0,1,3.06,2,9.87,9.87,0,0,1,2.68,6.8v52.37a9.39,9.39,0,0,0,9.42,9.41,9.33,9.33,0,0,0,6.66-2.75,9.07,9.07,0,0,0,2.75-6.66V296.74a9.77,9.77,0,0,1,2.75-6.6,8.58,8.58,0,0,1,6.53-2.68,9.84,9.84,0,0,1,3.71.72,9.18,9.18,0,0,1,3.09,2,10,10,0,0,1,1.36,1.74,12.87,12.87,0,0,1,.74,1.32,8.88,8.88,0,0,1,.77,3.21h18.57Z" transform="translate(-300 -267.5)"/><path class="cls-1" d="M518.27,313.76a20.07,20.07,0,0,0,8.07-7.59,21.32,21.32,0,0,0,2.94-11.26,19.11,19.11,0,0,0-8.19-16.34q-8.21-5.93-23.38-5.93H457.56v85.67h42.59q16.41,0,25-6.06t8.57-17.19a21.6,21.6,0,0,0-4.17-13.53A22.57,22.57,0,0,0,518.27,313.76Zm-44.79-28.64H496q8.29,0,12.79,3a10.94,10.94,0,0,1,0,17.63q-4.49,3-12.79,3H473.48Zm25.69,60.71H473.48V321.1h25.69q18.48,0,18.48,12.37T499.17,345.83Z" transform="translate(-300 -267.5)"/><path class="cls-1" d="M568.08,292.22a55,55,0,0,0-15.3,2.08,37.18,37.18,0,0,0-12.36,6l6,11.13a26.91,26.91,0,0,1,9-4.77A35.12,35.12,0,0,1,566.25,305q8.07,0,12.18,3.67t4.09,10.53v1H565.64q-14.08,0-20.63,5.33a17.32,17.32,0,0,0-6.54,14.14,17.66,17.66,0,0,0,3,10.09,19.8,19.8,0,0,0,8.51,7,30.75,30.75,0,0,0,12.85,2.51,31.38,31.38,0,0,0,12.55-2.27,17.87,17.87,0,0,0,8-6.54v7.95h14.44V320q0-14-7.65-20.86T568.08,292.22Zm14.44,45.65a14.45,14.45,0,0,1-6.29,7.53A19.78,19.78,0,0,1,566,348c-3.92,0-7-.81-9.18-2.45a7.8,7.8,0,0,1-3.3-6.61q0-8.69,13.21-8.69h15.79Z" transform="translate(-300 -267.5)"/><path class="cls-1" d="M636.25,292.22A55,55,0,0,0,621,294.3a37.18,37.18,0,0,0-12.36,6l6,11.13a26.91,26.91,0,0,1,9-4.77A35.11,35.11,0,0,1,634.41,305c5.39,0,9.44,1.22,12.18,3.67s4.1,6,4.1,10.53v1H633.8q-14.09,0-20.62,5.33a17.3,17.3,0,0,0-6.55,14.14,17.66,17.66,0,0,0,3,10.09,19.74,19.74,0,0,0,8.51,7A30.72,30.72,0,0,0,631,359.17a31.38,31.38,0,0,0,12.55-2.27,17.78,17.78,0,0,0,8-6.54v7.95H666V320q0-14-7.65-20.86T636.25,292.22Zm14.44,45.65a14.42,14.42,0,0,1-6.3,7.53A19.75,19.75,0,0,1,634.16,348c-3.91,0-7-.81-9.17-2.45a7.8,7.8,0,0,1-3.31-6.61q0-8.69,13.22-8.69h15.79Z" transform="translate(-300 -267.5)"/><path class="cls-1" d="M716.53,292.22a34.3,34.3,0,0,0-13,2.33A23.78,23.78,0,0,0,694,301.4V293H679.45v65.36h15.3V325.26q0-9.54,4.89-14.62T713,305.56q7.46,0,11.5,4.34t4,12.92v35.49h15.29V320.86q0-14.21-7.46-21.42T716.53,292.22Z" transform="translate(-300 -267.5)"/><path class="cls-1" d="M806.48,301a24,24,0,0,0-9.17-6.61,31,31,0,0,0-11.87-2.2,34.47,34.47,0,0,0-17,4.16,30.08,30.08,0,0,0-11.82,11.75,34.94,34.94,0,0,0-4.28,17.5,35.31,35.31,0,0,0,4.28,17.57A29.82,29.82,0,0,0,768.49,355a34.37,34.37,0,0,0,17,4.17,31.68,31.68,0,0,0,12.3-2.33,23.67,23.67,0,0,0,9.36-7v8.45h14.68V267.5h-15.3Zm-2.32,35.37a18,18,0,0,1-7,7.16,20.82,20.82,0,0,1-19.82,0,18,18,0,0,1-7-7.16,23.85,23.85,0,0,1,0-21.54,18.15,18.15,0,0,1,7-7.16,20.82,20.82,0,0,1,19.82,0,18.15,18.15,0,0,1,7,7.16,23.85,23.85,0,0,1,0,21.54Z" transform="translate(-300 -267.5)"/><path class="cls-1" d="M895.53,308.38a31.43,31.43,0,0,0-12.42-11.88,39.7,39.7,0,0,0-35.86,0,31.39,31.39,0,0,0-12.43,11.88,35.72,35.72,0,0,0,0,34.57,31.18,31.18,0,0,0,12.43,11.93,39.61,39.61,0,0,0,35.86,0A31.21,31.21,0,0,0,895.53,343a35.65,35.65,0,0,0,0-34.57Zm-16.46,32.06a18.66,18.66,0,0,1-14,5.63,18.43,18.43,0,0,1-13.89-5.63q-5.46-5.62-5.45-14.81t5.45-14.8a18.44,18.44,0,0,1,13.89-5.64,18.67,18.67,0,0,1,14,5.64q5.5,5.63,5.51,14.8T879.07,340.44Z" transform="translate(-300 -267.5)"/><polygon class="cls-1" points="79.41 71.04 90.8 71.04 90.8 76.02 94.55 76.02 94.55 67.29 94.2 67.29 75.93 67.29 75.66 67.29 75.66 76.02 79.41 76.02 79.41 71.04"/><path class="cls-2" d="M435.09,267.5a9.54,9.54,0,0,0-6.46,2.54,10,10,0,0,0-2.06,3,8.35,8.35,0,0,0-.76,3.5v30h-41a9.18,9.18,0,0,0,0,18.35h41v25.36a8.68,8.68,0,0,0,.73,3.5,9.44,9.44,0,0,0,1.95,2.89,8.87,8.87,0,0,0,2.93,1.92,9.21,9.21,0,0,0,3.53.69,8.77,8.77,0,0,0,6.46-2.61,9.29,9.29,0,0,0,2-2.89,8.67,8.67,0,0,0,.72-3.5V276.5a8.69,8.69,0,0,0-9-9Z" transform="translate(-300 -267.5)"/><path class="cls-2" d="M389.75,352.76l-.09.11-.07.12a4.81,4.81,0,0,1-.72.91,5.52,5.52,0,0,1-7.61,0,5.13,5.13,0,0,1-.94-1.34l-.23-.4,0,0L380,352l0-.11a5.09,5.09,0,0,1-.46-1.48h-3.8a8.79,8.79,0,0,0,.92,3.19l0,.05c.1.23.24.43.35.64a9.24,9.24,0,0,0,1.61,2.25,9.3,9.3,0,0,0,12.92,0,9.1,9.1,0,0,0,1.21-1.55,8.71,8.71,0,0,0,1.74-4.58h-3.74A5.09,5.09,0,0,1,389.75,352.76Z" transform="translate(-300 -267.5)"/></svg>