<svg width="51" height="51" viewBox="0 0 51 51" fill="none" xmlns="http://www.w3.org/2000/svg">
<circle cx="25.2591" cy="25.8914" r="24.4539" stroke="#F9B51F"/>
<g clip-path="url(#clip0_88_510)">
<path d="M20.8917 41.4695C21.04 40.8096 21.2197 40.0019 21.4035 39.1942C23.084 31.8374 24.7666 24.4795 26.446 17.1227C27.057 14.4477 27.667 11.7716 28.2696 9.09453C28.3929 8.54912 28.6488 8.12236 29.2159 7.9704C30.1037 7.73204 30.9424 8.4773 30.7533 9.3766C30.394 11.0867 29.9877 12.7865 29.5982 14.4904C27.973 21.5953 26.3458 28.7002 24.7206 35.8051C24.2705 37.7734 23.8234 39.7438 23.3702 41.712C23.2051 42.4281 22.7842 42.8258 22.1795 42.858C21.4338 42.8976 20.8833 42.3709 20.8917 41.4695Z" fill="#F9AF20"/>
<path d="M11.6099 27.0993C12.7619 28.0018 13.8961 28.8917 15.0304 29.7806C16.5135 30.9433 17.9977 32.1059 19.4808 33.2675C19.8672 33.5704 20.074 33.9649 20.003 34.4541C19.9299 34.9527 19.6541 35.3347 19.1539 35.47C18.6515 35.6063 18.2201 35.3846 17.8316 35.0828C16.0352 33.687 14.2408 32.288 12.4465 30.8912C11.2767 29.9805 10.1069 29.0718 8.93922 28.1589C8.07025 27.4803 8.07651 26.6122 8.95071 25.9263C11.8751 23.6312 14.7975 21.3309 17.7282 19.0441C17.9559 18.8661 18.2337 18.7027 18.5105 18.6465C19.0901 18.531 19.6218 18.8432 19.8536 19.3522C20.0876 19.8664 19.9737 20.4462 19.5069 20.8302C18.6734 21.5151 17.8201 22.175 16.9731 22.8443C15.2905 24.1735 13.6058 25.5027 11.9232 26.8318C11.8229 26.912 11.7289 26.9984 11.6099 27.0993Z" fill="#F9AF20"/>
<path d="M39.9007 25.4049C38.8635 24.5868 37.8661 23.7988 36.8676 23.0119C35.397 21.8535 33.9223 20.7002 32.4549 19.5375C31.9285 19.1201 31.7895 18.5352 32.059 17.9794C32.3201 17.4412 32.8966 17.1612 33.493 17.3163C33.6873 17.3673 33.8795 17.4745 34.0382 17.5994C36.8937 19.8352 39.7471 22.0752 42.5943 24.3203C43.4382 24.9854 43.434 25.84 42.587 26.4999C39.7064 28.746 36.8217 30.987 33.9359 33.227C33.2653 33.7474 32.575 33.6974 32.1081 33.1125C31.6485 32.5369 31.7739 31.7802 32.4235 31.2701C34.7756 29.4247 37.1308 27.5813 39.4839 25.738C39.6072 25.6422 39.7273 25.5433 39.9007 25.4049Z" fill="#F9AF20"/>
</g>
<defs>
<clipPath id="clip0_88_510">
<rect width="34.9355" height="34.9355" fill="white" transform="translate(8.29053 7.92462)"/>
</clipPath>
</defs>
</svg>
