<svg width="51" height="51" viewBox="0 0 51 51" fill="none" xmlns="http://www.w3.org/2000/svg">
<circle cx="25.7679" cy="25.9376" r="24.4539" stroke="#F9B51F"/>
<g clip-path="url(#clip0_88_502)">
<path d="M38.744 20.2692C38.129 20.8927 37.5191 21.5207 36.8962 22.1364C36.7459 22.2855 36.5422 22.2809 36.3892 22.1332C35.8002 21.563 35.2177 20.9864 34.6417 20.4032C34.4868 20.2464 34.5043 20.0205 34.6599 19.8552C34.8096 19.6964 34.971 19.5487 35.1285 19.3944C31.8384 16.8301 26.6504 16.4565 22.7576 19.1823C23.1254 20.0433 23.0713 20.8647 22.3821 21.5494C21.6987 22.2282 20.8851 22.2829 20.0266 21.9151C17.6093 25.237 17.3281 30.423 20.2407 34.328C20.3846 34.1646 20.5148 34 20.6618 33.8529C20.8688 33.6466 21.0934 33.6479 21.3016 33.8555C21.8419 34.3944 22.3788 34.9365 22.9125 35.4819C23.1325 35.7071 23.1286 35.9115 22.906 36.1367C22.3743 36.6723 21.8399 37.206 21.3036 37.7378C21.0699 37.9688 20.8779 37.974 20.6495 37.7488C20.1067 37.2125 19.5671 36.673 19.0308 36.1302C18.8049 35.9017 18.8082 35.7065 19.038 35.4767C19.2384 35.2763 19.4486 35.0862 19.6556 34.891C18.4092 33.2144 17.6627 31.3771 17.4212 29.3484C17.1811 27.3328 17.4531 25.3776 18.2459 23.4973C18.2263 23.4863 18.2068 23.4759 18.1873 23.4648C17.8937 23.7655 17.6015 24.0675 17.3054 24.3656C16.9506 24.7229 16.5966 25.0802 16.2341 25.4297C16.1241 25.5358 16.0857 25.6243 16.1345 25.7837C16.3304 26.4268 15.9516 27.103 15.317 27.2761C14.6603 27.4551 13.9886 27.0731 13.8298 26.4099C13.7269 25.9803 13.8239 25.5839 14.1474 25.2689C14.4826 24.9429 14.8842 24.8537 15.3385 24.965C15.4237 24.9858 15.5585 24.9839 15.6105 24.9324C16.8367 23.7134 18.0545 22.4866 19.2853 21.2493C18.7678 20.2802 18.844 19.3717 19.6908 18.6056C20.2284 18.1194 21.1253 17.8942 22.0846 18.4566C22.1328 18.4143 22.1888 18.3707 22.2382 18.3212C23.3974 17.1614 24.5546 15.9996 25.7164 14.8418C25.8245 14.7344 25.8622 14.6511 25.8108 14.4877C25.6253 13.8955 25.9214 13.296 26.4929 13.0468C26.5508 13.0214 26.6055 12.9908 26.6621 12.9622C26.8567 12.9622 27.052 12.9622 27.2466 12.9622C27.2726 12.9791 27.2974 13.0006 27.3253 13.0116C27.9899 13.2733 28.3036 13.8994 28.0869 14.5333C27.8734 15.1588 27.2472 15.4803 26.5814 15.2831C26.4356 15.2401 26.3751 15.3 26.2937 15.3807C25.6969 15.9769 25.0994 16.573 24.4993 17.1666C24.4342 17.231 24.3503 17.2759 24.2748 17.33C24.293 17.3475 24.3112 17.3651 24.3301 17.3827C28.3706 15.8415 32.1651 16.3029 35.7481 18.8035C35.931 18.6082 36.1146 18.4025 36.3092 18.2079C36.5474 17.9697 36.742 17.9684 36.9802 18.206C37.5705 18.7944 38.1563 19.3873 38.744 19.9782C38.744 20.0746 38.744 20.1715 38.744 20.2692ZM20.9691 21.3489C21.6466 21.3509 22.1816 20.8276 22.1862 20.1579C22.1907 19.4719 21.6609 18.9258 20.9847 18.9193C20.3162 18.9135 19.7565 19.4725 19.7604 20.1429C19.7643 20.8126 20.3 21.347 20.9691 21.3489ZM20.9697 36.9001C21.3374 36.5324 21.7143 36.1562 22.0645 35.8061C21.7019 35.4435 21.3264 35.0687 20.9834 34.7263C20.6261 35.0836 20.2505 35.4585 19.8932 35.8152C20.2433 36.1679 20.6137 36.5415 20.9697 36.9001ZM36.6391 21.2207C37.0101 20.8504 37.3818 20.48 37.7215 20.1409C37.3623 19.781 36.9874 19.4055 36.6391 19.0566C36.2883 19.4068 35.916 19.7778 35.5581 20.1351C35.9128 20.4911 36.2825 20.8627 36.6391 21.2207ZM26.9615 14.5691C27.1906 14.5652 27.3664 14.3738 27.3572 14.1376C27.3488 13.9143 27.1672 13.7373 26.9498 13.7419C26.7214 13.7464 26.5463 13.9378 26.5541 14.174C26.5625 14.3966 26.7435 14.573 26.9615 14.5691ZM15.4068 26.1202C15.4101 25.8989 15.2337 25.7213 15.0065 25.7167C14.7722 25.7122 14.6212 25.8573 14.6206 26.0877C14.6199 26.3122 14.7937 26.4951 15.0137 26.5016C15.222 26.5075 15.4036 26.3318 15.4068 26.1202Z" fill="#F9B220"/>
<path d="M38.744 31.6205C36.7139 33.6524 34.6852 35.6844 32.6539 37.715C32.3473 38.0215 32.087 37.9747 31.8904 37.5835C31.5123 36.8311 31.1419 36.0749 30.7553 35.327C30.6993 35.2184 30.5835 35.1103 30.4702 35.0661C29.1815 34.5597 27.8896 34.0618 26.5944 33.5724C26.3718 33.4884 26.2351 33.3602 26.1466 33.1376C24.8468 29.873 23.5438 26.6097 22.2317 23.3496C22.1132 23.0548 22.1594 22.8511 22.3859 22.6382C22.7823 22.2659 23.1611 21.8754 23.5418 21.4869C23.7091 21.3157 23.8822 21.2754 24.1107 21.3665C27.4171 22.6922 30.7247 24.0141 34.0337 25.3327C34.2257 25.4095 34.3292 25.539 34.3995 25.7232C34.8961 27.0243 35.3933 28.3253 35.9023 29.6211C35.9492 29.7402 36.0644 29.8613 36.1789 29.9211C36.8825 30.2882 37.5965 30.6351 38.3033 30.9957C38.4582 31.0744 38.5975 31.1844 38.744 31.2795C38.744 31.3934 38.744 31.5066 38.744 31.6205ZM28.8184 27.3627C30.0348 26.6077 31.3033 27.0561 31.9256 27.8638C32.6142 28.7574 32.5621 30.0038 31.7967 30.8343C31.0371 31.6582 29.7836 31.8105 28.8457 31.1877C28.3751 30.8753 28.0529 30.4451 27.9039 29.8997C27.7151 29.2059 27.831 28.5524 28.2111 27.9745C26.5319 26.2953 24.8676 24.6324 23.1949 22.9597C23.0797 23.0424 22.9841 23.1179 23.0648 23.319C24.317 26.4287 25.5595 29.543 26.8111 32.6527C26.8502 32.7497 26.951 32.8525 27.048 32.8903C28.2534 33.3648 29.4634 33.8249 30.67 34.2961C30.8132 34.3521 30.8985 34.3267 31.0052 34.2193C32.3499 32.8662 33.6985 31.5164 35.0523 30.1717C35.1681 30.0565 35.1896 29.9661 35.1304 29.8157C34.6683 28.6318 34.2127 27.4453 33.761 26.2569C33.7018 26.1014 33.6158 26.0109 33.457 25.9478C30.3713 24.7196 27.2875 23.4876 24.207 22.2464C24.0079 22.1664 23.89 22.1852 23.8067 22.3512C25.4755 24.02 27.1385 25.6829 28.8184 27.3627ZM35.7891 30.6228C34.3331 32.0767 32.8999 33.5092 31.4563 34.9509C31.7635 35.5626 32.0811 36.1953 32.3812 36.7927C34.1385 35.0355 35.8802 33.2938 37.6238 31.5509C37.6284 31.5548 37.6121 31.5352 37.5919 31.5248C36.9827 31.2202 36.3748 30.9163 35.7891 30.6228ZM28.6042 29.2768C28.6049 30.1034 29.2753 30.7796 30.1012 30.7861C30.9245 30.7933 31.6255 30.093 31.6216 29.2671C31.6177 28.4418 30.9415 27.7675 30.1162 27.7662C29.2687 27.7662 28.6036 28.4301 28.6042 29.2768Z" fill="#F9B220"/>
</g>
<defs>
<clipPath id="clip0_88_502">
<rect width="24.9539" height="24.9539" fill="white" transform="translate(13.79 12.9615)"/>
</clipPath>
</defs>
</svg>
