<svg width="50" height="50" viewBox="0 0 50 50" fill="none" xmlns="http://www.w3.org/2000/svg">
<circle cx="25" cy="25" r="24.5" stroke="#F9B51F"/>
<path d="M23.936 20.4966C22.9882 23.7695 22.139 26.7829 21.2468 29.7727C19.8745 34.3636 17.6074 37.4781 13.4044 37.7814C12.2721 28.6435 11.1373 19.455 10 10.2666C11.8349 9.71714 14.5114 11.7665 15.7119 14.5777C16.738 16.981 16.5232 19.664 16.7026 22.2493C16.8467 24.3021 16.8644 26.3717 17.1727 28.5188C17.6049 27.0694 17.9992 25.5998 18.4768 24.1807C19.6622 20.6381 20.6984 16.9708 22.1542 13.6339C23.2789 11.0587 25.3488 10.0272 27.7498 10.0138C28.3589 16.2428 28.9604 22.4111 29.5619 28.5761C29.6327 28.593 29.7035 28.6064 29.7742 28.6233C30.54 25.4077 31.3058 22.1954 32.0741 18.9798C32.7616 16.1046 33.7902 13.5294 35.6858 11.7294C36.9115 10.5666 38.2763 10.0205 39.9975 10.0036C39.2746 12.3935 38.615 14.5844 37.9503 16.772C36.5703 21.3089 35.2409 25.8762 33.7928 30.376C32.5366 34.2827 30.5122 37.0197 27.1634 37.6938C26.1222 37.9028 25.8795 37.532 25.7582 36.2444C25.2856 31.212 24.7296 26.1964 24.1963 21.1741C24.1837 21.0291 24.0952 20.8977 23.936 20.4966Z" fill="#F9AF20"/>
</svg>
