<svg width="51" height="51" viewBox="0 0 51 51" fill="none" xmlns="http://www.w3.org/2000/svg">
<circle cx="25.9073" cy="25.3387" r="24.4539" stroke="#F9B51F"/>
<g clip-path="url(#clip0_88_520)">
<path d="M22.0439 35.5176C22.1097 35.3608 22.1502 35.2748 22.1806 35.1837C23.3908 31.5712 24.596 27.9537 25.7962 24.3362C25.8417 24.1946 25.8367 24.0124 25.786 23.8708C24.9505 21.5586 24.0998 19.2464 23.2642 16.9342C23.1782 16.7015 23.0566 16.6408 22.8237 16.6307C22.3072 16.6003 21.7907 16.5497 21.2741 16.4789C20.864 16.4232 20.6513 16.1348 20.6715 15.7352C20.6918 15.3304 20.9653 15.0622 21.3856 15.0572C21.6742 15.0521 21.9679 15.0825 22.2565 15.0926C23.7605 15.1432 25.2645 15.2292 26.7735 15.2241C28.0648 15.2191 29.351 15.1128 30.6423 15.0471C30.9562 15.0319 31.2196 15.1128 31.3765 15.4113C31.6348 15.8971 31.3512 16.4131 30.7689 16.4839C30.1308 16.5598 29.4928 16.6054 28.8244 16.6711C30.9157 22.8892 33.002 29.087 35.1137 35.3557C35.1744 35.2292 35.2048 35.1736 35.22 35.1179C36.0758 32.2694 36.9468 29.421 37.7823 26.5624C38.2786 24.8675 38.3697 23.1624 37.8178 21.4523C37.4582 20.3342 36.8506 19.3476 36.2783 18.3357C35.8783 17.6274 35.4783 16.8938 35.22 16.1247C34.7035 14.5715 35.3162 13.003 36.6784 12.2846C37.0987 12.062 37.5949 11.9962 38.0963 11.8444C33.711 8.12067 28.6927 6.63319 23.0161 7.72098C18.2814 8.63168 14.5949 11.1968 11.7896 15.2494C12.4479 15.2494 12.9897 15.2697 13.5315 15.2444C14.8582 15.1887 16.185 15.1027 17.5168 15.0673C17.7446 15.0622 18.0535 15.1887 18.2004 15.3608C18.57 15.8009 18.2612 16.4131 17.6484 16.489C17.0154 16.57 16.3774 16.6104 15.7039 16.6762C17.8206 22.9499 19.9221 29.1984 22.0439 35.5176Z" fill="#F9AF20"/>
<path d="M26.7078 26.4156C24.9456 31.5409 23.2138 36.5599 21.4819 41.5991C25.1026 42.6312 28.6473 42.5249 32.1768 41.3309C30.3842 36.4334 28.6068 31.5712 26.8294 26.704C26.8091 26.6484 26.7787 26.5927 26.7078 26.4156Z" fill="#F9AF20"/>
<path d="M18.7423 40.5012C15.9724 32.917 13.2176 25.3785 10.4376 17.769C6.41686 26.9267 10.9136 36.8634 18.7423 40.5012Z" fill="#F9AF20"/>
<path d="M41.8082 16.6762C41.8234 17.0152 41.8335 17.2378 41.8487 17.4655C41.9601 19.3527 41.7069 21.1994 41.0942 22.9853C39.2104 28.4597 37.3013 33.9239 35.4024 39.3932C35.3518 39.5399 35.3113 39.6866 35.2505 39.8839C43.9147 34.8093 45.9504 24.0529 41.8082 16.6762Z" fill="#F9AF20"/>
</g>
<defs>
<clipPath id="clip0_88_520">
<rect width="34.9355" height="34.9355" fill="white" transform="translate(8.93872 7.37187)"/>
</clipPath>
</defs>
</svg>
